<?xml version="1.0" encoding="utf-8"?>
<!-- Generator: Adobe Illustrator 19.0.1, SVG Export Plug-In . SVG Version: 6.00 Build 0)  -->
<svg version="1.1" id="Layer_1" xmlns="http://www.w3.org/2000/svg" xmlns:xlink="http://www.w3.org/1999/xlink" x="0px" y="0px"
	 viewBox="0 0 366.5 115.3" style="enable-background:new 0 0 366.5 115.3;" xml:space="preserve">
<style type="text/css">
	.st0{fill:#E87722;}
	.st1{fill:#D45D00;}
	.st2{fill:#F2A900;}
	.st3{fill:#B3B3B1;}
	.st4{fill:#8A8A8D;}
	.st5{fill:#D2D0CD;}
	.st6{fill:#D19000;}
	.st7{fill:#FFCD00;}
	.st8{fill:#FFB000;}
	.st9{fill:#55565A;}
</style>
<g>
	<g>
		<g>
			<g>
				<path class="st0" d="M74.1,73.4c-1.7,6.5-3.3,13.1-4.9,19.9c7.2,4.6,14.2,9.2,21.3,13.2C85,96.3,79.6,85.1,74.1,73.4z"/>
				<path class="st1" d="M74.1,73.4C80.5,78,86.8,82.7,93,87c-0.8,6.3-1.7,12.8-2.5,19.5C85,96.3,79.6,85.1,74.1,73.4z"/>
			</g>
			<g>
				<path class="st1" d="M74.1,73.4c-1.7,6.5-3.3,13.1-4.9,19.9c-7.2-4.6-14.5-9.3-21.9-13.5C56.1,77,65.1,74.7,74.1,73.4z"/>
				<path class="st2" d="M74.1,73.4c-6.4-4.6-13-9.1-19.7-13.2c-2.4,6.4-4.8,13-7.2,19.5C56.1,77,65.1,74.7,74.1,73.4z"/>
			</g>
			<g>
				<path class="st0" d="M81.4,47c-1.1,3.7-2.2,7.5-3.3,11.5c5.8,4.6,11.4,9.4,16.8,14C90.5,64.4,86,55.9,81.4,47z"/>
				<path class="st1" d="M81.4,47c5.2,4.7,10.2,9.5,15.1,14.3c-0.5,3.6-1,7.3-1.5,11.1C90.5,64.4,86,55.9,81.4,47z"/>
			</g>
			<g>
				<path class="st2" d="M74.1,73.4c1.3-5.1,2.7-10.1,4-15c5.8,4.6,11.4,9.4,16.8,14C88.2,72,81.2,72.4,74.1,73.4z"/>
				<path class="st0" d="M74.1,73.4C80.5,78,86.8,82.7,93,87c0.7-5,1.3-9.9,2-14.6C88.2,72,81.2,72.4,74.1,73.4z"/>
			</g>
			<path class="st3" d="M81.4,47c0.9-3.1,1.8-6,2.7-8.9c4.7,4.7,9.2,9.6,13.5,14.4C92.5,50.1,87,48.2,81.4,47z"/>
			<path class="st4" d="M81.4,47c5.2,4.7,10.2,9.5,15.1,14.3c0.4-3,0.8-5.9,1.2-8.7C92.5,50.1,87,48.2,81.4,47z"/>
			<path class="st4" d="M81.4,47c0.9-3.1,1.8-6,2.7-8.9c-4.7-4.7-9.5-9.3-14.5-13.5C73.6,32.1,77.5,39.7,81.4,47z"/>
			<path class="st5" d="M81.4,47c-5.2-4.7-10.5-9.2-16-13.4c1.4-3.1,2.8-6.1,4.2-9C73.6,32.1,77.5,39.7,81.4,47z"/>
			<g>
				<path class="st1" d="M34.5,49.8c-3.1,6.5-6.1,13.1-9.1,19.5c7.1,2.6,14.5,6.3,21.9,10.5C43,69.5,38.8,59.4,34.5,49.8z"/>
				<path class="st0" d="M34.5,49.8c6.6,2.8,13.3,6.4,19.9,10.5c-2.4,6.4-4.8,13-7.2,19.5C43,69.5,38.8,59.4,34.5,49.8z"/>
			</g>
			<g>
				<path class="st6" d="M34.5,49.8c-3.1,6.5-6.1,13.1-9.1,19.5c-7.1-2.6-13.9-4.2-19.8-4.2C14.1,58.4,24,53.2,34.5,49.8z"/>
				<path class="st7" d="M34.5,49.8c-6.5-2.8-12.9-4.7-18.8-5.4c-3.5,7-6.8,14-10,20.7C14.1,58.4,24,53.2,34.5,49.8z"/>
			</g>
			<g>
				<path class="st7" d="M48.7,22.4c-2.2,3.9-4.4,7.9-6.5,12c-6.1-3-12.1-5.3-17.8-6.7C32,24.5,40.3,22.7,48.7,22.4z"/>
				<path class="st8" d="M48.7,22.4c-5.6-3.2-11.2-5.9-16.7-7.8c-2.6,4.2-5.2,8.6-7.7,13.1C32,24.5,40.3,22.7,48.7,22.4z"/>
			</g>
			<g>
				<path class="st8" d="M34.5,49.8c2.5-5.2,5-10.3,7.7-15.4c-6.1-3-12.1-5.3-17.8-6.7C27.7,34.7,31.1,42.1,34.5,49.8z"/>
				<path class="st6" d="M34.5,49.8c-6.5-2.8-12.9-4.7-18.8-5.4c2.8-5.6,5.7-11.2,8.7-16.6C27.7,34.7,31.1,42.1,34.5,49.8z"/>
			</g>
			<path class="st4" d="M48.7,22.4c1.8-3.2,3.7-6.4,5.6-9.4c5.2,3.4,10.3,7.3,15.3,11.6C62.7,22.9,55.7,22.1,48.7,22.4z"/>
			<path class="st3" d="M48.7,22.4c5.6,3.2,11.2,7,16.7,11.2c1.4-3.1,2.8-6.1,4.2-9C62.7,22.9,55.7,22.1,48.7,22.4z"/>
			<path class="st8" d="M48.7,22.4c1.8-3.2,3.7-6.4,5.6-9.4c-5.2-3.4-10.4-6.4-15.5-8.7C42.1,10.2,45.4,16.2,48.7,22.4z"/>
			<path class="st6" d="M48.7,22.4c-5.6-3.2-11.2-5.9-16.7-7.8c2.2-3.5,4.4-7,6.7-10.2C42.1,10.2,45.4,16.2,48.7,22.4z"/>
		</g>
		<g>
			<g>
				<g>
					<g>
						<path class="st9" d="M134.9,112.3c-13.8,0-23.5-10.5-23.5-23.2c0-12.7,9.8-23.4,23.6-23.4c13.8,0,23.5,10.5,23.5,23.2
							C158.5,101.7,148.8,112.3,134.9,112.3z M134.9,73c-8.9,0-15.2,7.1-15.2,16c0,8.8,6.4,16.1,15.3,16.1c8.9,0,15.2-7.1,15.2-16
							C150.2,80.3,143.9,73,134.9,73z"/>
					</g>
				</g>
				<g>
					<g>
						<path class="st9" d="M182.7,97.1h-8.9v14.5h-7.9v-45h17.8c10.5,0,17.1,5.9,17.1,15.1C200.7,91.8,192.6,97.1,182.7,97.1z
							 M183,73.7h-9.2V90h9.2c6,0,9.7-3.3,9.7-8.1C192.7,76.5,188.9,73.7,183,73.7z"/>
					</g>
				</g>
				<g>
					<g>
						<path class="st9" d="M226.9,111.6h-8V73.9h-14.3v-7.3h36.5v7.3h-14.3V111.6z"/>
					</g>
				</g>
				<g>
					<g>
						<path class="st9" d="M286.7,92.1c0,13.4-7.6,20.2-19.4,20.2c-11.7,0-19.2-6.8-19.2-19.8V66.5h7.9v25.6
							c0,8.4,4.3,12.9,11.4,12.9c7,0,11.3-4.2,11.3-12.5V66.5h7.9V92.1z"/>
					</g>
				</g>
				<g>
					<g>
						<path class="st9" d="M317.5,100.5h-0.3l-14.1-21.1v32.2h-7.8v-45h8.4l13.7,21.3l13.7-21.3h8.4v45h-7.9V79.3L317.5,100.5z"/>
					</g>
				</g>
			</g>
		</g>
	</g>
</g>
<g>
	<g>
		<path class="st9" d="M348.2,71.9L348.2,71.9c0-3.7,3-6.8,6.7-6.8c3.8,0,6.7,3.1,6.7,6.7v0c0,3.7-3,6.8-6.7,6.8
			C351.2,78.7,348.2,75.6,348.2,71.9z M360.9,71.9L360.9,71.9c0-3.3-2.6-6-6-6c-3.4,0-6,2.8-6,6v0c0,3.3,2.6,6,6,6
			C358.3,77.9,360.9,75.2,360.9,71.9z M352.4,68.4h3c1.4,0,2.5,0.7,2.5,2.1c0,1.1-0.7,1.8-1.7,2.1l1.9,2.6h-1.4l-1.7-2.5h-1.6v2.5
			h-1.1V68.4z M355.3,71.8c1,0,1.5-0.5,1.5-1.2c0-0.8-0.6-1.2-1.5-1.2h-1.8v2.4H355.3z"/>
	</g>
</g>
</svg>
